<?xml version="1.0" encoding="UTF-8"?> <svg xmlns="http://www.w3.org/2000/svg" xmlns:svg="http://www.w3.org/2000/svg" width="66" height="82.5"><g class="layer"><title>Layer 1</title><path d="m582,342l0,14c0,3.86 -3.14,7 -7,7l-31,0c-3.86,0 -7,-3.14 -7,-7l0,-31c0,-3.86 3.14,-7 7,-7l14,0l0,-14c0,-3.86 3.14,-7 7,-7l31,0c3.86,0 7,3.14 7,7l0,31c0,3.86 -3.14,7 -7,7l-14,0zm-2,-2l0,-15c0,-2.76 -2.24,-5 -5,-5l-15,0l0,15c0,2.76 2.24,5 5,5l15,0zm-41,9.41l0,6.59c0,1.02 0.31,1.97 0.83,2.76l19.56,-19.57c-0.87,-1.17 -1.39,-2.62 -1.39,-4.19l0,-4.59l-19,19zm2.24,10.76c0.79,0.52 1.74,0.83 2.76,0.83l6.59,0l19,-19l-4.59,0c-1.57,0 -3.02,-0.52 -4.19,-1.39l-19.57,19.56zm-2.24,-23.76l0,10.18l19,-19l0,-7.59l-2.59,0l-16.41,16.41zm24.59,24.59l16.41,-16.41l0,-2.59l-7.59,0l-19,19l10.18,0zm16.41,-13.59l-13.59,13.59l8.59,0c2.76,0 5,-2.24 5,-5l0,-8.59zm-41,-13.82l13.59,-13.59l-8.59,0c-2.77,0 -5,2.24 -5,5l0,8.59zm62,-23l0,-6.59c0,-1.02 -0.31,-1.97 -0.83,-2.76l-19.56,19.57c0.87,1.17 1.39,2.62 1.39,4.19l0,4.59l19,-19zm-2.24,-10.76c-0.79,-0.52 -1.74,-0.83 -2.76,-0.83l-6.59,0l-19,19l4.59,0c1.57,0 3.02,0.52 4.19,1.39l19.57,-19.56zm2.24,23.76l0,-10.18l-19,19l0,7.59l2.59,0l16.41,-16.41zm-24.59,-24.59l-16.41,16.41l0,2.59l7.59,0l19,-19l-10.18,0zm-16.41,13.59l13.59,-13.59l-8.59,0c-2.76,0 -5,2.24 -5,5l0,8.59zm41,13.82l-13.59,13.59l8.59,0c2.77,0 5,-2.24 5,-5l0,-8.59z" fill="#000000" fill-rule="evenodd" id="svg_1" transform="translate(-537 -297)"></path></g></svg> 