<?xml version="1.0" encoding="UTF-8"?> <svg xmlns="http://www.w3.org/2000/svg" xmlns:svg="http://www.w3.org/2000/svg" width="500" height="625" version="1.1" xml:space="preserve"> <g class="layer"> <title>Layer 1</title> <path d="m187.73,483.34l88.99,-88.99c6.27,-6.27 8.03,-15.35 5.28,-23.16l3.38,-3.38c6.48,-6.48 7.39,-16.75 2.25,-24.43c-3.59,-5.35 -6.76,-14.08 -1.34,-25.49c9.93,-20.56 28.58,-33.02 48.29,-46.25c11.12,-7.46 22.6,-15.13 32.59,-24.43c28.3,-26.47 54.28,-53.71 60.55,-96.03c1.13,-7.53 -1.41,-11.83 -3.66,-14.15l0,0c-2.32,-2.32 -6.62,-4.79 -14.15,-3.66c-42.38,6.33 -69.63,32.24 -96.03,60.55c-9.29,10 -17.04,21.47 -24.43,32.59c-13.23,19.78 -25.69,38.44 -46.25,48.29c-11.41,5.49 -20.13,2.32 -25.49,-1.34c-7.67,-5.21 -17.95,-4.23 -24.43,2.25l-3.38,3.38c-7.89,-2.75 -16.89,-0.99 -23.16,5.28l-89.05,88.91c-2.25,2.25 -2.25,5.99 0,8.24l101.8,101.8c2.32,2.25 5.99,2.25 8.24,0l-0.01,0zm87.58,-122l-75.61,-75.61l1.76,-1.76c2.53,-2.53 6.62,-2.89 9.65,-0.85c11.12,7.53 24.29,8.31 37.03,2.18c23.44,-11.27 37.38,-32.17 50.9,-52.38c7.18,-10.77 14.57,-21.83 23.3,-31.12c30.69,-32.88 54,-51.67 89.27,-56.95c2.61,-0.42 3.87,0.07 4.23,0.42c0.42,0.42 0.77,1.9 0.42,4.23c-5.21,35.13 -24.01,58.5 -56.95,89.27c-9.29,8.66 -20.41,16.12 -31.12,23.3c-20.21,13.52 -41.11,27.45 -52.38,50.9c-6.13,12.74 -5.35,25.91 2.18,37.03c2.04,3.03 1.69,7.11 -0.85,9.65l-1.83,1.69l0.01,0.01zm-91.66,109.61l-22.11,-22.11l9.85,-9.85c2.25,-2.25 2.25,-5.99 0,-8.24c-2.25,-2.25 -5.99,-2.25 -8.24,0l-9.85,9.85l-21.4,-21.4l46.18,-46.18c2.25,-2.25 2.25,-5.99 0,-8.24s-5.99,-2.25 -8.24,0l-46.18,46.18l-13.73,-13.73l23.87,-23.87c2.25,-2.25 2.25,-5.99 0,-8.24s-5.99,-2.25 -8.24,0l-23.87,23.87l-11.61,-11.61l69.41,-69.41l71.59,71.59c2.25,2.25 5.99,2.25 8.24,0s2.25,-5.99 0,-8.24l-71.59,-71.59l7.18,-7.18c4.15,-4.15 10.98,-4.15 15.13,0l78.43,78.43c4.15,4.15 4.15,10.98 0,15.13l-84.83,84.83l0.01,0.01z" id="svg_1"></path> </g> </svg> 