<?xml version="1.0" encoding="UTF-8"?> <svg xmlns="http://www.w3.org/2000/svg" xmlns:svg="http://www.w3.org/2000/svg" width="96" height="96" data-name="Document Folders"><g class="layer"><title>Layer 1</title><path d="m84,45l-2,0l0,-29c0,-0.55 -0.45,-1 -1,-1l-4,0c-0.1,-6.01 0.99,-4.89 -5,-5l0,-4c0,-0.55 -0.45,-1 -1,-1l-56,0c-0.55,0 -1,0.45 -1,1l0,32l-2,0c-2.21,0 -4,1.79 -4,4l0,47c0,2.21 1.79,4 4,4l72,0c2.21,0 4,-1.79 4,-4l0,-40c0,-2.21 -1.79,-4 -4,-4zm-4,0l-40.84,0c-0.36,0 -0.69,-0.19 -0.87,-0.5l-2.56,-4.48c-0.71,-1.25 -2.04,-2.02 -3.47,-2.02l-6.26,0l0,-21l54,0l0,28zm-5,-30l-50,0c-0.55,0 -1,0.45 -1,1l0,22l-3,0l0,-26l54,0l0,3zm-59,-8l54,0l0,3l-50,0c-0.55,0 -1,0.45 -1,1l0,27l-3,0l0,-31zm70,82c0,1.1 -0.9,2 -2,2l-72,0c-1.1,0 -2,-0.9 -2,-2l0,-47c0,-1.1 0.9,-2 2,-2l20.26,0c0.72,0 1.38,0.39 1.74,1.01l2.56,4.48c0.53,0.93 1.53,1.51 2.6,1.51l44.84,0c1.1,0 2,0.9 2,2l0,40z" id="svg_1"></path><path d="m43,25l20,0c0.55,0 1,-0.45 1,-1s-0.45,-1 -1,-1l-20,0c-1.31,0.02 -1.32,1.98 0,2z" id="svg_2"></path><path d="m73,40l-32,0c-0.55,0 -1,0.45 -1,1s0.45,1 1,1l32,0c1.3,-0.02 1.32,-1.98 0,-2z" id="svg_3"></path><path d="m73,35l-35,0c-1.3,0.02 -1.32,1.98 0,2c0,0 35,0 35,0c1.3,-0.02 1.32,-1.98 0,-2z" id="svg_4"></path><path d="m73,30l-40,0c-1.3,0.02 -1.33,1.98 0,2c0,0 40,0 40,0c1.3,-0.02 1.33,-1.98 0,-2z" id="svg_5"></path><path d="m77,73l-27,0c-0.55,0 -1,0.45 -1,1l0,9c0,0.55 0.45,1 1,1l27,0c0.55,0 1,-0.45 1,-1l0,-9c0,-0.55 -0.45,-1 -1,-1zm-1,9l-25,0l0,-7l25,0l0,7z" id="svg_6"></path></g></svg> 