<?xml version="1.0" encoding="UTF-8"?> <svg xmlns="http://www.w3.org/2000/svg" xmlns:svg="http://www.w3.org/2000/svg" width="110" height="135" version="1.1"><g class="layer"><title>Layer 1</title><g id="svg_1"><path d="m62.68,39.84c-9.05,0 -15.81,4.37 -19.79,10.02c-3.8,5.38 -5.23,11.88 -4.07,17.27l-4.76,8.97c-0.61,1.14 -0.75,2.57 -0.18,3.64c0.57,1.07 1.49,1.55 2.25,1.84c1.53,0.58 3,0.53 3,0.53l0.01,0c0.76,0 0.52,0.04 0.62,0.29c0.08,0.17 0.1,0.35 0.1,0.47l-0.68,2.42l0,0c-0.24,0.85 0.13,1.75 0.9,2.19l2.34,1.33l-1.1,0.92l0,0c-0.41,0.34 -0.66,0.84 -0.69,1.38c-0.02,0.54 0.18,1.07 0.56,1.45c1.04,1.04 1.55,2.46 2.3,4.02c0.38,0.78 0.82,1.62 1.63,2.34c0.8,0.72 1.99,1.18 3.24,1.18l12.57,0c1.88,0 3.51,-0.78 4.62,-1.85c1.11,-1.08 1.77,-2.39 2.21,-3.61c0.89,-2.46 0.94,-4.8 0.94,-4.8l0,0c0.01,-0.5 -0.18,-1 -0.53,-1.37c-0.35,-0.37 -0.83,-0.58 -1.34,-0.6c-1.06,-0.03 -1.95,0.81 -1.97,1.87c0,0 -0.08,1.85 -0.71,3.6c-0.31,0.87 -0.76,1.66 -1.27,2.16s-1.02,0.77 -1.95,0.77l-12.57,0c-0.47,0 -0.51,-0.06 -0.68,-0.21c-0.16,-0.15 -0.43,-0.52 -0.72,-1.14c-0.42,-0.86 -0.89,-2.14 -1.74,-3.44l1.8,-1.5l0,0c0.48,-0.4 0.74,-1.02 0.68,-1.65c-0.05,-0.63 -0.41,-1.19 -0.97,-1.5l-3.45,-1.95l0.35,-1.25l0.01,0c0.03,-0.13 0.06,-0.26 0.07,-0.4c0,0 0.1,-1.11 -0.41,-2.32s-2.08,-2.64 -4.15,-2.64l0,0s-1.06,-0.06 -1.65,-0.28c-0.04,-0.02 -0.05,-0.03 -0.08,-0.04c0.02,-0.03 0.01,0 0.03,-0.05l5.1,-9.6l0,0c0.23,-0.43 0.29,-0.93 0.16,-1.4c-1.1,-4.12 -0.04,-10.07 3.32,-14.83c3.35,-4.77 8.8,-8.39 16.65,-8.39c7.78,-0.01 13.13,3.91 16.47,8.87c3.33,4.96 4.36,11.04 3.48,14.35c-0.89,3.3 -2.43,5.76 -3.89,8.17c-1.46,2.41 -2.93,4.86 -2.93,7.95l0,14.8l0,0c0,1.06 0.86,1.92 1.92,1.92c1.06,0 1.92,-0.86 1.92,-1.92l0,-14.8c0,-1.84 0.94,-3.6 2.37,-5.96c1.44,-2.37 3.27,-5.25 4.32,-9.17l0,0.01l0,-0.01c1.33,-4.95 -0.1,-11.69 -4,-17.49c-3.9,-5.79 -10.56,-10.57 -19.66,-10.57l0,0.01z" id="svg_2"></path><path d="m17.1,85.82c-1.06,0 -1.92,0.86 -1.92,1.92c0,1.06 0.86,1.92 1.92,1.92l6.56,0c1.06,0 1.93,-0.86 1.93,-1.92c0,-1.06 -0.87,-1.92 -1.93,-1.92l-6.56,0z" id="svg_3"></path><path d="m20.12,75.32c-0.68,0 -1.31,0.37 -1.65,0.96c-0.25,0.43 -0.32,0.96 -0.19,1.45s0.45,0.91 0.9,1.17l5.68,3.28c0.92,0.53 2.1,0.22 2.63,-0.7c0.25,-0.44 0.32,-0.96 0.19,-1.46c-0.13,-0.49 -0.45,-0.91 -0.89,-1.16l-5.69,-3.29l0,0c-0.3,-0.17 -0.64,-0.26 -0.98,-0.25z" id="svg_4"></path><path d="m25.82,93.03c-0.34,0.01 -0.67,0.09 -0.96,0.26l-5.68,3.29c-0.45,0.25 -0.77,0.67 -0.9,1.17c-0.13,0.48 -0.06,1.01 0.19,1.45c0.53,0.92 1.71,1.23 2.63,0.71l5.68,-3.29c0.45,-0.25 0.77,-0.67 0.9,-1.17c0.13,-0.49 0.06,-1.01 -0.19,-1.45c-0.35,-0.6 -0.98,-0.97 -1.67,-0.97z" id="svg_5"></path></g></g></svg> 