<?xml version="1.0" encoding="UTF-8"?> <svg xmlns="http://www.w3.org/2000/svg" xmlns:svg="http://www.w3.org/2000/svg" width="100" height="100" version="1.1" xml:space="preserve"> <g class="layer"> <title>Layer 1</title> <path d="m59.37,54.85l4.02,-5.45c0.33,-0.44 0.24,-1.07 -0.21,-1.39c-0.44,-0.33 -1.07,-0.24 -1.39,0.21l-4.03,5.44c-0.33,0.44 -0.24,1.07 0.21,1.4c0.18,0.13 0.39,0.19 0.59,0.19c0.31,0 0.61,-0.14 0.81,-0.4z" id="svg_1"></path> <path d="m33.63,43.62c0.19,0.19 0.45,0.29 0.71,0.29s0.51,-0.1 0.7,-0.29c0.39,-0.39 0.39,-1.03 0,-1.42l-4.1,-4.1c-0.39,-0.39 -1.02,-0.39 -1.41,0c-0.39,0.39 -0.39,1.02 0,1.42l4.1,4.1z" id="svg_2"></path> <path d="m97.5,92.13l-5.62,0l0,-47.71c0.01,-0.03 0.02,-0.06 0.02,-0.09c0,-0.24 -0.08,-0.46 -0.22,-0.63l-19.76,-37.3c-0.18,-0.33 -0.52,-0.53 -0.89,-0.53l-10.4,0l-20.79,0c-0.55,0 -1,0.44 -1,1l0,12.62c0,0.55 0.45,1 1,1l2.49,0l0,10.2c0,0.55 0.45,1 1,1l2.54,0l0,14.06c0,0.55 0.45,1 1,1l2.37,0l0,10.34c0,0.55 0.45,1 1,1s1,-0.45 1,-1l0,-10.34l2.36,0c0.55,0 1,-0.45 1,-1l0,-14.06l2.55,0c0.55,0 1,-0.45 1,-1l0,-10.2l8.57,0l12.77,24.09l0,47.55l-16.13,0l0,-27.87c0,-0.55 -0.45,-1 -1,-1l-17.08,0l-7.43,-6.93c-0.03,-0.03 -0.08,-0.05 -0.12,-0.08c-0.06,-0.04 -0.12,-0.09 -0.19,-0.11c-0.08,-0.03 -0.15,-0.04 -0.23,-0.05c-0.05,-0.01 -0.09,-0.03 -0.14,-0.03l-11.54,0l0,-10.31c0,-0.56 -0.45,-1 -1,-1l-16.46,0c-0.55,0 -1,0.44 -1,1l0,46.38l-4.67,0c-0.55,0 -1,0.45 -1,1s0.45,1 1,1l95,0c0.55,0 1,-0.44 1,-1s-0.45,-1 -1,-1zm-27.07,-84.26l18.79,35.46l-8.13,0l-12.62,-23.82c0,-0.01 0,-0.01 0,-0.02c0,-0.34 -0.18,-0.63 -0.45,-0.81l-5.72,-10.81l8.13,0zm-17.83,36.88l-4.73,0l0,-13.06l4.73,0l0,13.06zm3.55,-15.06l-2.55,0l-6.73,0l-2.54,0l0,-9.2l11.82,0l0,9.2zm1,-11.2l-13.82,0l-2.49,0l0,-10.62l19.19,0l5.63,10.62l-8.51,0zm24.33,26.84l8.4,0l0,46.8l-8.4,0l0,-46.8zm-72.31,1.42l14.46,0l0,9.31l-7.23,0c-0.55,0 -1,0.45 -1,1s0.45,1 1,1l20.38,0l5.57,5.2l-25.95,0c-0.55,0 -1,0.45 -1,1s0.45,1 1,1l44.96,0l0,26.87l-52.19,0l0,-45.38z" id="svg_3"></path> </g> </svg> 