<?xml version="1.0" encoding="UTF-8"?> <svg xmlns="http://www.w3.org/2000/svg" xmlns:svg="http://www.w3.org/2000/svg" width="110" height="135" version="1.1"><g class="layer"><title>Layer 1</title><g id="svg_1"><path d="m47.68,106.65c-0.83,0 -1.67,-0.04 -2.49,-0.14c-1.58,-0.17 -2.85,-1.4 -3.07,-2.97l-0.68,-4.62c-2.6,-0.65 -5.06,-1.68 -7.35,-3.08l-2.75,2.04c-1.28,0.95 -3.04,0.92 -4.28,-0.08c-1.32,-1.05 -2.51,-2.24 -3.55,-3.54c-0.99,-1.25 -1.02,-3 -0.07,-4.28l2.04,-2.75c-1.41,-2.28 -2.44,-4.75 -3.08,-7.35l-4.61,-0.67c-1.58,-0.23 -2.8,-1.51 -2.98,-3.09c-0.18,-1.67 -0.19,-3.36 0,-5.01c0.17,-1.59 1.4,-2.85 2.97,-3.08l4.62,-0.68c0.65,-2.6 1.68,-5.06 3.08,-7.35l-2.04,-2.74c-0.95,-1.28 -0.91,-3.05 0.08,-4.29c1.05,-1.31 2.24,-2.51 3.54,-3.55c1.25,-0.99 3.01,-1.02 4.29,-0.07l2.74,2.04c2.29,-1.41 4.76,-2.44 7.35,-3.08l0.68,-4.61c0.23,-1.58 1.51,-2.8 3.09,-2.98c1.67,-0.19 3.36,-0.19 5.01,0c0.77,0.08 1.33,0.78 1.24,1.55c-0.08,0.77 -0.78,1.32 -1.55,1.24c-1.44,-0.16 -2.92,-0.16 -4.39,0c-0.32,0.04 -0.57,0.29 -0.63,0.6l-0.82,5.57c-0.08,0.58 -0.53,1.05 -1.1,1.17c-2.92,0.6 -5.66,1.75 -8.16,3.41c-0.48,0.33 -1.13,0.31 -1.61,-0.04l-3.52,-2.62c-0.26,-0.2 -0.62,-0.19 -0.87,0.01c-1.14,0.91 -2.19,1.96 -3.1,3.11c-0.21,0.25 -0.21,0.61 -0.02,0.87l2.62,3.52c0.36,0.47 0.38,1.12 0.04,1.61c-1.67,2.5 -2.81,5.24 -3.42,8.16c-0.12,0.58 -0.58,1.02 -1.16,1.1l-5.57,0.82c-0.32,0.04 -0.56,0.3 -0.6,0.62c-0.16,1.45 -0.16,2.93 0,4.39c0.04,0.32 0.29,0.58 0.6,0.63l5.57,0.82c0.58,0.09 1.05,0.53 1.17,1.1c0.6,2.92 1.75,5.66 3.41,8.16c0.33,0.49 0.31,1.14 -0.04,1.61l-2.63,3.52c-0.19,0.26 -0.19,0.62 0.02,0.87c0.9,1.14 1.95,2.19 3.11,3.1c0.25,0.21 0.61,0.22 0.86,0.02l3.52,-2.62c0.48,-0.36 1.12,-0.38 1.61,-0.04c2.5,1.67 5.25,2.82 8.16,3.42c0.57,0.12 1.02,0.58 1.1,1.17l0.82,5.56c0.04,0.32 0.3,0.57 0.62,0.61c1.45,0.16 2.93,0.16 4.39,-0.01c0.32,-0.04 0.58,-0.28 0.63,-0.6l0.82,-5.57c0.08,-0.58 0.52,-1.05 1.1,-1.16c2.91,-0.6 5.66,-1.76 8.15,-3.42c0.49,-0.33 1.14,-0.31 1.61,0.04l3.53,2.62c0.26,0.2 0.61,0.19 0.87,-0.01c1.13,-0.91 2.18,-1.95 3.1,-3.11c0.2,-0.25 0.21,-0.61 0.01,-0.87l-2.62,-3.52c-0.35,-0.47 -0.37,-1.12 -0.04,-1.61c1.67,-2.5 2.82,-5.24 3.42,-8.16c0.13,-0.57 0.59,-1.01 1.17,-1.1l5.57,-0.82c0.32,-0.05 0.56,-0.3 0.6,-0.63c0.16,-1.45 0.16,-2.93 0,-4.39c-0.02,-0.13 -0.07,-0.26 -0.16,-0.38c-0.48,-0.59 -0.4,-1.48 0.2,-1.97c0.6,-0.48 1.48,-0.4 1.97,0.2c0.44,0.53 0.7,1.16 0.78,1.84c0.18,1.68 0.19,3.36 0,5.02c-0.18,1.58 -1.4,2.85 -2.98,3.08l-4.62,0.67c-0.64,2.6 -1.67,5.06 -3.07,7.36l2.03,2.74c0.96,1.28 0.92,3.05 -0.07,4.28c-1.05,1.32 -2.24,2.51 -3.55,3.55c-1.24,0.99 -3,1.03 -4.28,0.07l-2.74,-2.04c-2.29,1.41 -4.76,2.44 -7.35,3.08l-0.68,4.62c-0.23,1.58 -1.51,2.8 -3.09,2.97c-0.83,0.1 -1.68,0.14 -2.53,0.14l-0.01,0z" id="svg_2"></path><path d="m47.69,85.96c-6.81,0 -12.36,-5.55 -12.36,-12.36s5.55,-12.36 12.36,-12.36s12.37,5.55 12.37,12.36s-5.55,12.36 -12.37,12.36zm0,-21.92c-5.27,0 -9.56,4.29 -9.56,9.56s4.29,9.57 9.56,9.57c5.28,0 9.57,-4.29 9.57,-9.57s-4.29,-9.56 -9.57,-9.56z" id="svg_3"></path><path d="m71.91,68.7c-0.52,0 -1.04,-0.03 -1.55,-0.09c-1.19,-0.13 -2.15,-1.06 -2.33,-2.25l-0.35,-2.38c-1.34,-0.36 -2.63,-0.9 -3.83,-1.6l-1.33,0.99c-0.97,0.73 -2.3,0.7 -3.23,-0.05c-0.82,-0.65 -1.56,-1.39 -2.2,-2.2c-0.75,-0.95 -0.78,-2.28 -0.05,-3.24l0.99,-1.33c-0.7,-1.2 -1.24,-2.48 -1.6,-3.83l-2.37,-0.35c-1.19,-0.18 -2.12,-1.14 -2.26,-2.34c-0.11,-1.03 -0.11,-2.08 0,-3.1c0.13,-1.2 1.07,-2.16 2.26,-2.34l2.38,-0.35c0.36,-1.33 0.9,-2.63 1.6,-3.83l-0.99,-1.33c-0.73,-0.97 -0.7,-2.3 0.05,-3.24c0.65,-0.82 1.39,-1.56 2.2,-2.2c0.94,-0.76 2.28,-0.78 3.24,-0.06l1.33,0.99c1.21,-0.7 2.49,-1.24 3.83,-1.59l0.35,-2.38c0.17,-1.19 1.13,-2.11 2.33,-2.25c1.04,-0.12 2.08,-0.12 3.11,0c1.2,0.13 2.16,1.06 2.33,2.25l0.36,2.38c1.33,0.37 2.62,0.9 3.83,1.6l1.33,-0.99c0.97,-0.73 2.3,-0.7 3.24,0.05c0.82,0.65 1.55,1.39 2.2,2.2c0.75,0.94 0.77,2.28 0.05,3.24l-0.99,1.33c0.7,1.21 1.24,2.49 1.6,3.83l2.37,0.35c1.19,0.17 2.12,1.13 2.25,2.33c0.12,1.04 0.12,2.09 0,3.11c-0.13,1.2 -1.05,2.16 -2.25,2.33l-2.37,0.35c-0.37,1.34 -0.9,2.63 -1.6,3.83l0.99,1.33c0.72,0.97 0.7,2.3 -0.06,3.24c-0.65,0.82 -1.39,1.56 -2.2,2.2c-0.93,0.74 -2.27,0.77 -3.23,0.05l-1.33,-0.99c-1.21,0.71 -2.48,1.25 -3.83,1.6l-0.35,2.37c-0.18,1.2 -1.14,2.12 -2.33,2.26c-0.53,0.06 -1.05,0.09 -1.57,0.09l-0.01,0zm-1.12,-2.86c0.74,0.08 1.5,0.07 2.26,0l0.47,-3.2c0.08,-0.58 0.52,-1.06 1.1,-1.17c1.67,-0.34 3.23,-1 4.65,-1.95c0.49,-0.33 1.14,-0.31 1.61,0.04l2.01,1.49c0.58,-0.47 1.12,-1.01 1.59,-1.6l-1.49,-2c-0.36,-0.48 -0.38,-1.12 -0.04,-1.62c0.95,-1.42 1.6,-2.98 1.95,-4.65c0.12,-0.57 0.58,-1.01 1.17,-1.1l3.2,-0.47c0.08,-0.75 0.08,-1.51 0,-2.27l-3.2,-0.47c-0.58,-0.08 -1.05,-0.52 -1.17,-1.1c-0.34,-1.66 -0.99,-3.23 -1.95,-4.65c-0.32,-0.49 -0.3,-1.14 0.04,-1.61l1.5,-2.01c-0.48,-0.58 -1.02,-1.12 -1.6,-1.6l-2.01,1.49c-0.47,0.36 -1.12,0.38 -1.61,0.04c-1.42,-0.95 -2.99,-1.61 -4.66,-1.95c-0.57,-0.12 -1.01,-0.58 -1.1,-1.16l-0.47,-3.21c-0.75,-0.08 -1.51,-0.08 -2.27,0l-0.47,3.2c-0.09,0.58 -0.53,1.06 -1.1,1.17c-1.67,0.34 -3.23,1 -4.66,1.95c-0.49,0.32 -1.14,0.31 -1.61,-0.04l-2.01,-1.49c-0.58,0.47 -1.12,1.01 -1.59,1.6l1.49,2c0.36,0.48 0.38,1.12 0.04,1.61c-0.95,1.42 -1.6,2.99 -1.95,4.66c-0.12,0.57 -0.58,1.01 -1.16,1.1l-3.21,0.47c-0.08,0.74 -0.07,1.51 0,2.27l3.2,0.47c0.58,0.08 1.06,0.52 1.16,1.1c0.35,1.66 1,3.23 1.95,4.65c0.33,0.5 0.31,1.14 -0.04,1.62l-1.5,2c0.47,0.58 1.02,1.12 1.6,1.6l2.01,-1.5c0.47,-0.35 1.12,-0.37 1.61,-0.04c1.42,0.95 2.99,1.6 4.66,1.95c0.57,0.12 1.01,0.58 1.1,1.16l0.47,3.21l0.01,0z" id="svg_4"></path><path d="m71.92,56.39c-4.37,0 -7.92,-3.55 -7.92,-7.92s3.55,-7.92 7.92,-7.92s7.92,3.56 7.92,7.92s-3.56,7.92 -7.92,7.92zm0,-13.04c-2.82,0 -5.12,2.29 -5.12,5.12c0,2.83 2.29,5.12 5.12,5.12c2.82,0 5.12,-2.29 5.12,-5.12c0,-2.82 -2.29,-5.12 -5.12,-5.12z" id="svg_5"></path></g></g></svg> 