<?xml version="1.0" encoding="UTF-8"?> <svg xmlns="http://www.w3.org/2000/svg" xmlns:svg="http://www.w3.org/2000/svg" width="110" height="135" version="1.1"><g class="layer"><title>Layer 1</title><path d="m41.32,83.72c-2.16,0 -3.92,-1.76 -3.92,-3.92c0,-0.54 0.43,-0.97 0.96,-0.97s0.97,0.43 0.97,0.97c0,1.09 0.89,1.99 1.99,1.99c1.1,0 1.99,-0.9 1.99,-1.99c0,-1.1 -0.89,-2 -1.99,-2c-2.16,0 -3.92,-1.75 -3.92,-3.91c0,-2.16 1.76,-3.92 3.92,-3.92c2.16,0 3.92,1.76 3.92,3.92c0,0.53 -0.43,0.96 -0.97,0.96c-0.53,0 -0.96,-0.43 -0.96,-0.96c0,-1.1 -0.9,-2 -1.99,-2s-2,0.9 -2,2c0,1.09 0.9,1.99 2,1.99c2.16,0 3.91,1.76 3.91,3.92c0,2.16 -1.75,3.92 -3.91,3.92z" fill-rule="evenodd" id="svg_1"></path><path d="m41.32,86.61c-0.54,0 -0.97,-0.43 -0.97,-0.97l0,-2.89c0,-0.54 0.43,-0.97 0.97,-0.97s0.96,0.43 0.96,0.97l0,2.89c0,0.54 -0.43,0.97 -0.96,0.97z" fill-rule="evenodd" id="svg_2"></path><path d="m41.32,71.89c-0.54,0 -0.97,-0.43 -0.97,-0.96l0,-2.9c0,-0.53 0.43,-0.96 0.97,-0.96s0.96,0.43 0.96,0.96l0,2.9c0,0.53 -0.43,0.96 -0.96,0.96z" fill-rule="evenodd" id="svg_3"></path><path d="m79.66,91.13c-0.53,0 -0.96,-0.44 -0.96,-0.97l0,-59.21c0,-1.75 -1.42,-3.16 -3.17,-3.16l-58.98,0c-0.53,0 -0.97,-0.43 -0.97,-0.97c0,-0.53 0.44,-0.96 0.97,-0.96l58.98,0c2.81,0 5.09,2.28 5.09,5.09l0,59.21c0,0.53 -0.43,0.96 -0.96,0.96l0,0.01zm-49.84,18.09c-4.19,0 -7.6,-3.41 -7.6,-7.6l0,-55.65c0,-0.54 0.44,-0.97 0.97,-0.97s0.96,0.43 0.96,0.97l0,55.65c0,3.13 2.55,5.68 5.67,5.68c0.54,0 0.97,0.43 0.97,0.96s-0.43,0.97 -0.97,0.97l0,-0.01z" fill-rule="evenodd" id="svg_4"></path><path d="m16.55,41.37c0.16,0 0.32,0.04 0.46,0.11l5.21,2.86l0,-10.88c0,-3.13 -2.54,-5.68 -5.67,-5.68s-5.68,2.55 -5.68,5.68l0,10.88l5.21,-2.86c0.14,-0.07 0.31,-0.11 0.46,-0.11l0.01,0zm6.64,5.56c-0.16,0 -0.32,-0.04 -0.47,-0.12l-6.17,-3.38l-6.18,3.38c-0.3,0.17 -0.66,0.16 -0.95,-0.01c-0.29,-0.18 -0.47,-0.49 -0.47,-0.83l0,-12.51c0,-4.19 3.41,-7.6 7.6,-7.6s7.6,3.41 7.6,7.6l0,12.51c0,0.34 -0.18,0.65 -0.47,0.83c-0.16,0.09 -0.32,0.13 -0.49,0.13z" fill-rule="evenodd" id="svg_5"></path><path d="m66.86,109.22l-37.04,0c-0.53,0 -0.96,-0.43 -0.96,-0.96c0,-0.53 0.43,-0.97 0.96,-0.97c3.13,0 5.68,-2.54 5.68,-5.67l0,-12.51c0,-0.34 0.18,-0.65 0.46,-0.82c0.29,-0.18 0.64,-0.19 0.94,-0.04l6.42,3.3l6.42,-3.3c0.28,-0.14 0.61,-0.14 0.88,0l6.42,3.3l6.42,-3.3c0.28,-0.14 0.61,-0.14 0.89,0l1.74,0.89c0.47,0.25 0.66,0.83 0.41,1.3c-0.24,0.47 -0.82,0.66 -1.3,0.42l-1.29,-0.67l-6.42,3.3c-0.28,0.14 -0.61,0.14 -0.88,0l-6.43,-3.3l-6.41,3.3c-0.28,0.14 -0.61,0.14 -0.89,0l-5.45,-2.81l0,10.93c0,2.25 -0.98,4.28 -2.55,5.67l31.98,0c0.54,0 0.97,0.44 0.97,0.97s-0.43,0.96 -0.97,0.96l0,0.01z" fill-rule="evenodd" id="svg_6"></path><path d="m67.82,112.22l22.45,0l0,-6.14l-22.45,0l0,6.14zm23.42,1.92l-24.38,0c-0.53,0 -0.96,-0.43 -0.96,-0.96l0,-8.07c0,-0.53 0.43,-0.97 0.96,-0.97l24.38,0c0.53,0 0.96,0.44 0.96,0.97l0,8.07c0,0.53 -0.43,0.96 -0.96,0.96z" fill-rule="evenodd" id="svg_7"></path><path d="m69.1,106.07c-0.21,0 -0.42,-0.06 -0.59,-0.2c-7.3,-5.66 -5.33,-11.53 -3.75,-16.25c0.9,-2.7 1.69,-5.03 0.8,-6.97c-1.4,-2.38 -4.46,-8.24 -3.24,-11.97c0.36,-1.11 1.08,-1.93 2.09,-2.37c0,0 0.01,-0.01 0.02,-0.01c2.06,-0.83 4.87,0.7 6.11,2.13c1.87,2.14 3.49,6.06 5.06,9.85c1.54,3.7 3.12,7.53 4.75,9.21c0.37,0.38 0.37,0.99 -0.02,1.36c-0.38,0.37 -0.99,0.36 -1.36,-0.02c-1.89,-1.94 -3.47,-5.77 -5.15,-9.81c-1.51,-3.65 -3.07,-7.42 -4.73,-9.33c-0.91,-1.04 -2.93,-2 -3.93,-1.61c-0.5,0.22 -0.82,0.6 -1.01,1.19c-0.67,2.06 0.52,6.06 3.09,10.44c0.02,0.03 0.03,0.05 0.04,0.08c1.25,2.64 0.31,5.46 -0.69,8.45c-1.53,4.56 -3.12,9.29 3.1,14.11c0.42,0.32 0.49,0.93 0.17,1.35c-0.19,0.24 -0.47,0.37 -0.76,0.37z" fill-rule="evenodd" id="svg_8"></path><path d="m89.63,106.07c-0.53,0 -0.96,-0.43 -0.96,-0.96c0,-0.55 -0.01,-1.06 -0.01,-1.52c-0.01,-5.76 0.01,-5.86 2.13,-10.69c0.25,-0.57 0.53,-1.22 0.85,-1.95c1.63,-3.77 2.22,-6.72 0.14,-9.77l-12.92,-18.92c-0.3,-0.44 -0.19,-1.03 0.25,-1.33c0.44,-0.31 1.04,-0.19 1.34,0.25l12.92,18.92c2.57,3.77 1.88,7.36 0.04,11.61c-0.32,0.74 -0.61,1.39 -0.86,1.96c-1.98,4.5 -1.98,4.5 -1.96,9.92c0,0.46 0,0.97 0,1.52c0,0.53 -0.43,0.96 -0.96,0.96z" fill-rule="evenodd" id="svg_9"></path><path d="m57.26,34.52l-11.67,0c-0.54,0 -0.97,-0.43 -0.97,-0.96s0.43,-0.97 0.97,-0.97l11.67,0c0.53,0 0.97,0.43 0.97,0.97c0,0.53 -0.44,0.96 -0.97,0.96z" fill-rule="evenodd" id="svg_10"></path><path d="m62.3,40.17l-21.76,0c-0.53,0 -0.97,-0.43 -0.97,-0.96c0,-0.53 0.44,-0.97 0.97,-0.97l21.76,0c0.54,0 0.97,0.44 0.97,0.97s-0.43,0.96 -0.97,0.96z" fill-rule="evenodd" id="svg_11"></path><path d="m34.01,78.31l-3.72,0c-0.54,0 -0.97,-0.43 -0.97,-0.97s0.43,-0.96 0.97,-0.96l3.72,0c0.53,0 0.97,0.43 0.97,0.96s-0.44,0.97 -0.97,0.97z" fill-rule="evenodd" id="svg_12"></path><path d="m34.01,82.57l-3.72,0c-0.54,0 -0.97,-0.43 -0.97,-0.97c0,-0.53 0.43,-0.96 0.97,-0.96l3.72,0c0.53,0 0.97,0.43 0.97,0.96c0,0.53 -0.44,0.97 -0.97,0.97z" fill-rule="evenodd" id="svg_13"></path><path d="m35.69,48.53l-5.41,0c-0.53,0 -0.96,-0.43 -0.96,-0.96c0,-0.54 0.43,-0.97 0.96,-0.97l5.41,0c0.53,0 0.97,0.43 0.97,0.97s-0.44,0.96 -0.97,0.96z" fill-rule="evenodd" id="svg_14"></path><path d="m73.71,48.53l-33.55,0c-0.53,0 -0.96,-0.43 -0.96,-0.96c0,-0.54 0.43,-0.97 0.96,-0.97l33.55,0c0.53,0 0.97,0.43 0.97,0.97s-0.44,0.96 -0.97,0.96z" fill-rule="evenodd" id="svg_15"></path><path d="m35.69,56.47l-5.41,0c-0.53,0 -0.96,-0.43 -0.96,-0.96c0,-0.53 0.43,-0.97 0.96,-0.97l5.41,0c0.53,0 0.97,0.44 0.97,0.97s-0.44,0.96 -0.97,0.96z" fill-rule="evenodd" id="svg_16"></path><path d="m73.71,56.47l-33.55,0c-0.53,0 -0.96,-0.43 -0.96,-0.96c0,-0.53 0.43,-0.97 0.96,-0.97l33.55,0c0.53,0 0.97,0.44 0.97,0.97s-0.44,0.96 -0.97,0.96z" fill-rule="evenodd" id="svg_17"></path><path d="m35.69,64.42l-5.41,0c-0.53,0 -0.96,-0.44 -0.96,-0.97s0.43,-0.96 0.96,-0.96l5.41,0c0.53,0 0.97,0.43 0.97,0.96s-0.44,0.97 -0.97,0.97z" fill-rule="evenodd" id="svg_18"></path><path d="m73.71,64.42l-33.55,0c-0.53,0 -0.96,-0.44 -0.96,-0.97s0.43,-0.96 0.96,-0.96l33.55,0c0.53,0 0.97,0.43 0.97,0.96s-0.44,0.97 -0.97,0.97z" fill-rule="evenodd" id="svg_19"></path><path d="m53.16,81.97l-5.2,0c-0.53,0 -0.96,-0.44 -0.96,-0.97c0,-0.53 0.43,-0.96 0.96,-0.96l5.2,0c0.53,0 0.96,0.43 0.96,0.96c0,0.53 -0.43,0.97 -0.96,0.97z" fill-rule="evenodd" id="svg_20"></path><path d="m59.07,81.97l-2.7,0c-0.53,0 -0.96,-0.44 -0.96,-0.97c0,-0.53 0.43,-0.96 0.96,-0.96l2.7,0c0.53,0 0.96,0.43 0.96,0.96c0,0.53 -0.43,0.97 -0.96,0.97z" fill-rule="evenodd" id="svg_21"></path></g></svg> 