<?xml version="1.0" encoding="UTF-8"?> <svg xmlns="http://www.w3.org/2000/svg" xmlns:svg="http://www.w3.org/2000/svg" width="110" height="110" version="1.1"><g class="layer"><title>Layer 1</title><path d="m63.1,49.75l5.15,0c0.7,0 1.27,0.57 1.27,1.27s-0.57,1.27 -1.27,1.27l-5.15,0c-0.7,0 -1.26,-0.57 -1.26,-1.27s0.56,-1.27 1.26,-1.27zm5.15,4.13l-5.15,0c-0.7,0 -1.26,0.57 -1.26,1.26s0.56,1.27 1.26,1.27l5.15,0c0.7,0 1.27,-0.57 1.27,-1.27s-0.57,-1.26 -1.27,-1.26zm-8.69,0l-1.98,0c-0.7,0 -1.27,0.57 -1.27,1.26s0.57,1.27 1.27,1.27l1.98,0c0.7,0 1.26,-0.57 1.26,-1.27s-0.56,-1.26 -1.26,-1.26zm-1.98,-1.59l1.98,0c0.7,0 1.26,-0.57 1.26,-1.27s-0.56,-1.27 -1.26,-1.27l-1.98,0c-0.7,0 -1.27,0.57 -1.27,1.27s0.57,1.27 1.27,1.27zm0.79,-17.83l0.01,0c0.27,0.2 0.6,0.27 0.94,0.22c0.33,-0.05 0.63,-0.24 0.82,-0.51l1.51,-2.1l0,10.04c0,0.7 0.57,1.27 1.27,1.27s1.26,-0.57 1.26,-1.27l0,-10.04l1.52,2.1l0,-0.01c0.19,0.29 0.48,0.48 0.82,0.54c0.34,0.05 0.68,-0.03 0.96,-0.22c0.27,-0.2 0.46,-0.5 0.51,-0.84s-0.04,-0.68 -0.24,-0.95l-3.8,-5.3l0,0c-0.24,-0.33 -0.62,-0.53 -1.03,-0.53s-0.79,0.2 -1.03,0.53l-3.8,5.3l0,0c-0.2,0.27 -0.28,0.61 -0.23,0.94c0.06,0.34 0.24,0.63 0.51,0.83zm-48.39,11.84c-0.15,-2.12 1.18,-4.06 3.2,-4.69s4.23,0.22 5.3,2.05c0.06,0.09 0.11,0.2 0.14,0.31l2.8,10.16l-0.01,-0.01c0.24,-0.19 0.5,-0.34 0.77,-0.47c0.37,-0.17 0.76,-0.29 1.16,-0.34l0,-42.08c0,-0.7 0.57,-1.26 1.27,-1.26l50.78,0c0.7,0 1.27,0.56 1.27,1.26l0,42.08c0.4,0.05 0.79,0.16 1.16,0.33c0.27,0.13 0.53,0.29 0.76,0.48l2.8,-10.16c0.03,-0.1 0.08,-0.21 0.13,-0.3c1.08,-1.84 3.27,-2.69 5.31,-2.06c2.03,0.63 3.36,2.58 3.2,4.7c0,0.07 -0.01,0.13 -0.02,0.2c-3.43,14.63 -4.4,21.94 -4.41,22.01c-0.01,0.06 -0.02,0.11 -0.04,0.17c-1.02,3.82 -3.72,5.59 -6.32,7.31c-2.85,1.88 -5.8,3.82 -7.43,8.69l-1.2,4.42c-0.15,0.55 -0.65,0.94 -1.22,0.94l-15.7,0c-0.39,0 -0.77,-0.19 -1.01,-0.5c-0.24,-0.32 -0.31,-0.72 -0.21,-1.11l2.22,-8.18c-0.27,-4.04 0.28,-7.02 1.81,-9.64c1.48,-2.54 3.84,-4.75 7.88,-7.37l-28.74,0c4.04,2.62 6.4,4.84 7.89,7.38c1.52,2.61 2.08,5.6 1.8,9.64l2.22,8.18l0,-0.01c0.1,0.39 0.03,0.79 -0.21,1.11c-0.24,0.31 -0.61,0.5 -1.01,0.5l-15.7,0c-0.57,-0.01 -1.07,-0.39 -1.22,-0.94l-1.2,-4.43c-1.62,-4.86 -4.57,-6.8 -7.43,-8.69c-2.6,-1.71 -5.3,-3.49 -6.32,-7.31c-0.01,-0.05 -0.02,-0.11 -0.03,-0.16c-0.01,-0.07 -0.98,-7.4 -4.41,-22.01l0,0c-0.02,-0.07 -0.03,-0.13 -0.03,-0.2zm66.77,9.64l0,0c-0.7,-0.29 -1.51,-0.08 -1.98,0.52c-0.02,0.02 -0.04,0.04 -0.06,0.06l-8.54,8.55l-0.01,0c-0.06,0.06 -0.13,0.12 -0.2,0.16c-7.3,4.7 -9.27,8.08 -8.74,15.06l0,0c0.01,0.15 0,0.29 -0.04,0.43l-1.84,6.79l13.07,0l0.96,-3.53c0.01,-0.03 0.02,-0.05 0.02,-0.07c1.9,-5.72 5.38,-8.01 8.45,-10.03c2.49,-1.64 4.46,-2.95 5.25,-5.78c0.12,-0.91 1.14,-8.08 4.42,-22.06l-0.01,0c0.03,-0.91 -0.55,-1.72 -1.41,-2s-1.8,0.04 -2.32,0.78l-3.78,13.73c-0.69,3.27 -3.14,6.2 -6.87,9.87l-0.01,0c-0.49,0.49 -1.29,0.48 -1.79,-0.01c-0.48,-0.5 -0.48,-1.3 0.02,-1.8c3.4,-3.34 5.62,-5.95 6.17,-8.6c0.16,-1.01 -0.12,-1.77 -0.76,-2.07zm-31.9,-43.44l0,10.3l10.3,0l0,-10.3l-10.3,0zm-18.97,0l0,41.29c0.46,0.25 0.88,0.57 1.23,0.97l5.95,5.96l33.88,0l5.95,-5.96c0.35,-0.4 0.77,-0.72 1.23,-0.97l0,-41.29l-16.44,0l0,11.57c0,0.7 -0.56,1.26 -1.26,1.26l-12.84,0c-0.7,0 -1.26,-0.56 -1.26,-1.26l0,-11.57l-16.44,0zm-13.38,33.53c3.27,13.99 4.29,21.16 4.41,22.06c0.8,2.84 2.77,4.14 5.26,5.78c3.07,2.02 6.55,4.32 8.44,10.04c0.01,0.02 0.02,0.04 0.02,0.06l0.96,3.53l13.07,0l-1.84,-6.78c-0.04,-0.14 -0.05,-0.29 -0.04,-0.43c0.52,-6.99 -1.44,-10.36 -8.74,-15.06c-0.07,-0.05 -0.14,-0.1 -0.2,-0.17l-8.55,-8.54c-0.02,-0.02 -0.04,-0.05 -0.06,-0.07l0,0c-0.47,-0.59 -1.28,-0.8 -1.98,-0.51c-0.64,0.3 -0.92,1.06 -0.76,2.08c0.55,2.64 2.77,5.25 6.17,8.6l0,-0.01c0.5,0.49 0.5,1.3 0.01,1.8c-0.49,0.49 -1.29,0.5 -1.78,0.01c-3.73,-3.67 -6.19,-6.6 -6.88,-9.87l-3.78,-13.73c-0.52,-0.75 -1.46,-1.06 -2.32,-0.78c-0.86,0.28 -1.43,1.09 -1.41,1.99z" id="svg_1"></path></g></svg> 