<?xml version="1.0" encoding="UTF-8"?> <svg xmlns="http://www.w3.org/2000/svg" xmlns:svg="http://www.w3.org/2000/svg" width="64" height="64"><title>wind</title><g class="layer"><title>Layer 1</title><g id="svg_1"><path d="m49,10a1,1 0 0 0 0,2a11,11 0 0 1 0,22l-46,0a1,1 0 0 0 0,2l46,0a13,13 0 0 0 0,-26z" id="svg_2"></path><path d="m47,40l-44,0a1,1 0 0 0 0,2l44,0a5,5 0 0 1 0,10a1,1 0 0 0 0,2a7,7 0 0 0 0,-14z" id="svg_3"></path><path d="m3,30l34,0a7.01,7.01 0 0 0 7,-7a7.16,7.16 0 0 0 -2.28,-5.18a6.47,6.47 0 0 0 -4.78,-1.82a6.97,6.97 0 0 0 -5.87,4.64a1,1 0 1 0 1.86,0.72a4.97,4.97 0 0 1 4.13,-3.36a4.47,4.47 0 0 1 3.29,1.28a5.16,5.16 0 0 1 1.65,3.72a5.01,5.01 0 0 1 -5,5l-34,0a1,1 0 0 0 0,2z" id="svg_4"></path></g></g></svg> 