<?xml version="1.0" encoding="UTF-8"?> <svg xmlns="http://www.w3.org/2000/svg" width="632" height="671" viewBox="0 0 632 671" fill="none"> <path d="M632 0V7.33774L592.752 20.7903L591.074 24.8669C591.074 24.8669 404.561 500.193 344.849 652.248C327.07 606.998 139.214 128.004 98.9597 24.8669H81.516C146.595 189.152 303.253 584.577 337.469 671H294.531C232.471 512.83 141.563 282.505 76.1487 115.366L74.1359 110.067L67.0913 91.7224L39.2485 20.7903L0 7.33774V0H129.822C174.102 112.513 291.512 409.693 345.185 546.258L550.484 24.8669H533.04L344.514 505.9L324.051 453.312L502.514 0.407555H632V0Z" fill="white"></path> </svg> 