<?xml version="1.0" encoding="UTF-8"?> <svg xmlns="http://www.w3.org/2000/svg" width="21" height="21" viewBox="0 0 21 21" fill="none"> <path d="M0.501428 1.04056C0.501428 0.851173 0.576675 0.669543 0.710614 0.535627C0.844553 0.40171 1.02621 0.326477 1.21563 0.326477H1.84127C2.87972 0.326477 3.4768 1.002 3.82247 1.67609C4.05816 2.13739 4.22814 2.70008 4.36955 3.18852H19.075C19.2957 3.18858 19.5134 3.23978 19.711 3.33811C19.9086 3.43643 20.0807 3.5792 20.2138 3.7552C20.347 3.93121 20.4375 4.13567 20.4783 4.35254C20.5191 4.56941 20.5091 4.79278 20.4491 5.00514L18.3122 12.5387C18.1422 13.1364 17.7819 13.6624 17.286 14.0369C16.79 14.4113 16.1855 14.6139 15.564 14.6138H8.30909C7.68242 14.614 7.07306 14.4082 6.57489 14.0281C6.07673 13.6479 5.7174 13.1146 5.55227 12.5101L4.63523 9.14681C4.62998 9.13174 4.62521 9.1165 4.62095 9.10111L3.14826 4.10683L3.00542 3.62553C2.86258 3.13139 2.73688 2.69437 2.54833 2.32733C2.32122 1.8846 2.11267 1.75607 1.83984 1.75607H1.2142C1.02478 1.75607 0.843124 1.68084 0.709185 1.54692C0.575246 1.413 0.5 1.23137 0.5 1.04199L0.501428 1.04056ZM8.36194 20.3265C8.9302 20.3265 9.47518 20.1008 9.877 19.699C10.2788 19.2973 10.5046 18.7524 10.5046 18.1842C10.5046 17.6161 10.2788 17.0712 9.877 16.6694C9.47518 16.2677 8.9302 16.042 8.36194 16.042C7.79369 16.042 7.24871 16.2677 6.84689 16.6694C6.44507 17.0712 6.21934 17.6161 6.21934 18.1842C6.21934 18.7524 6.44507 19.2973 6.84689 19.699C7.24871 20.1008 7.79369 20.3265 8.36194 20.3265ZM15.504 20.3265C16.0722 20.3265 16.6172 20.1008 17.019 19.699C17.4208 19.2973 17.6466 18.7524 17.6466 18.1842C17.6466 17.6161 17.4208 17.0712 17.019 16.6694C16.6172 16.2677 16.0722 16.042 15.504 16.042C14.9357 16.042 14.3907 16.2677 13.9889 16.6694C13.5871 17.0712 13.3614 17.6161 13.3614 18.1842C13.3614 18.7524 13.5871 19.2973 13.9889 19.699C14.3907 20.1008 14.9357 20.3265 15.504 20.3265Z" fill="#E1CCAE"></path> </svg> 